<svg width="25" height="24" viewBox="0 0 25 24" fill="none" xmlns="http://www.w3.org/2000/svg">
<path d="M12.67 21H5.875C5.34457 21 4.83586 20.7893 4.46079 20.4142C4.08571 20.0391 3.875 19.5304 3.875 19V7C3.875 6.46957 4.08571 5.96086 4.46079 5.58579C4.83586 5.21071 5.34457 5 5.875 5H17.875C18.4054 5 18.9141 5.21071 19.2892 5.58579C19.6643 5.96086 19.875 6.46957 19.875 7V11" stroke="#93A0A0" stroke-width="2" stroke-linecap="round" stroke-linejoin="round"/>
<path d="M18.875 22C21.0841 22 22.875 20.2091 22.875 18C22.875 15.7909 21.0841 14 18.875 14C16.6659 14 14.875 15.7909 14.875 18C14.875 20.2091 16.6659 22 18.875 22Z" stroke="#93A0A0" stroke-width="2" stroke-linecap="round" stroke-linejoin="round"/>
<path d="M15.875 3V7" stroke="#93A0A0" stroke-width="2" stroke-linecap="round" stroke-linejoin="round"/>
<path d="M7.875 3V7" stroke="#93A0A0" stroke-width="2" stroke-linecap="round" stroke-linejoin="round"/>
<path d="M3.875 11H19.875" stroke="#93A0A0" stroke-width="2" stroke-linecap="round" stroke-linejoin="round"/>
<path d="M18.875 16.496V18L19.875 19" stroke="#93A0A0" stroke-width="2" stroke-linecap="round" stroke-linejoin="round"/>
</svg>
