<svg width="25" height="24" viewBox="0 0 25 24" fill="none" xmlns="http://www.w3.org/2000/svg">
<path d="M9.625 4V22M6.625 4H17.625C18.1554 4 18.6641 4.21071 19.0392 4.58579C19.4143 4.96086 19.625 5.46957 19.625 6V18C19.625 18.5304 19.4143 19.0391 19.0392 19.4142C18.6641 19.7893 18.1554 20 17.625 20H6.625C6.35978 20 6.10543 19.8946 5.91789 19.7071C5.73036 19.5196 5.625 19.2652 5.625 19V5C5.625 4.73478 5.73036 4.48043 5.91789 4.29289C6.10543 4.10536 6.35978 4 6.625 4V4Z" stroke="#93A0A0" stroke-width="2" stroke-linecap="round" stroke-linejoin="round"/>
<path d="M13.625 8H15.625" stroke="#93A0A0" stroke-width="2" stroke-linecap="round" stroke-linejoin="round"/>
<path d="M13.625 12H15.625" stroke="#93A0A0" stroke-width="2" stroke-linecap="round" stroke-linejoin="round"/>
</svg>
