<svg width="25" height="24" viewBox="0 0 25 24" fill="none" xmlns="http://www.w3.org/2000/svg">
<path d="M13.375 20L20.375 13" stroke="#93A0A0" stroke-width="2" stroke-linecap="round" stroke-linejoin="round"/>
<path d="M13.375 20V14C13.375 13.7348 13.4804 13.4804 13.6679 13.2929C13.8554 13.1054 14.1098 13 14.375 13H20.375V6C20.375 5.46957 20.1643 4.96086 19.7892 4.58579C19.4141 4.21071 18.9054 4 18.375 4H6.375C5.84457 4 5.33586 4.21071 4.96079 4.58579C4.58571 4.96086 4.375 5.46957 4.375 6V18C4.375 18.5304 4.58571 19.0391 4.96079 19.4142C5.33586 19.7893 5.84457 20 6.375 20H13.375Z" stroke="#93A0A0" stroke-width="2" stroke-linecap="round" stroke-linejoin="round"/>
</svg>
