<svg width="25" height="24" viewBox="0 0 25 24" fill="none" xmlns="http://www.w3.org/2000/svg">
<path d="M9.125 11C11.3341 11 13.125 9.20914 13.125 7C13.125 4.79086 11.3341 3 9.125 3C6.91586 3 5.125 4.79086 5.125 7C5.125 9.20914 6.91586 11 9.125 11Z" stroke="#07ABAC" stroke-width="2" stroke-linecap="round" stroke-linejoin="round"/>
<path d="M3.125 21V19C3.125 17.9391 3.54643 16.9217 4.29657 16.1716C5.04672 15.4214 6.06413 15 7.125 15H11.125C12.1859 15 13.2033 15.4214 13.9534 16.1716C14.7036 16.9217 15.125 17.9391 15.125 19V21" stroke="#07ABAC" stroke-width="2" stroke-linecap="round" stroke-linejoin="round"/>
<path d="M16.125 3.13C16.9854 3.35031 17.748 3.85071 18.2926 4.55232C18.8372 5.25392 19.1328 6.11683 19.1328 7.005C19.1328 7.89318 18.8372 8.75608 18.2926 9.45769C17.748 10.1593 16.9854 10.6597 16.125 10.88" stroke="#07ABAC" stroke-width="2" stroke-linecap="round" stroke-linejoin="round"/>
<path d="M21.125 21V19C21.1199 18.1172 20.8229 17.2608 20.2803 16.5644C19.7376 15.868 18.9798 15.3707 18.125 15.15" stroke="#07ABAC" stroke-width="2" stroke-linecap="round" stroke-linejoin="round"/>
</svg>
